<mxfile host="app.diagrams.net" agent="Mozilla/5.0 (Windows NT 10.0; Win64; x64) AppleWebKit/537.36 (KHTML, like Gecko) Chrome/140.0.0.0 Safari/537.36" version="28.2.5">
  <diagram name="PÃ¡gina-1" id="UeU4Jhv7a7H0MPf2VK1U">
    <mxGraphModel dx="2013" dy="703" grid="1" gridSize="10" guides="1" tooltips="1" connect="1" arrows="1" fold="1" page="1" pageScale="1" pageWidth="827" pageHeight="1169" math="0" shadow="0">
      <root>
        <mxCell id="0" />
        <mxCell id="1" parent="0" />
        <mxCell id="ag0j8mvPNOAKMLWU-CPe-8" style="rounded=0;orthogonalLoop=1;jettySize=auto;html=1;exitX=0;exitY=0.5;exitDx=0;exitDy=0;entryX=1;entryY=0.5;entryDx=0;entryDy=0;endArrow=none;endFill=0;" edge="1" parent="1" source="ag0j8mvPNOAKMLWU-CPe-1" target="ag0j8mvPNOAKMLWU-CPe-7">
          <mxGeometry relative="1" as="geometry" />
        </mxCell>
        <mxCell id="ag0j8mvPNOAKMLWU-CPe-9" style="rounded=0;orthogonalLoop=1;jettySize=auto;html=1;exitX=0;exitY=0;exitDx=0;exitDy=0;entryX=1;entryY=0.5;entryDx=0;entryDy=0;endArrow=none;endFill=0;" edge="1" parent="1" source="ag0j8mvPNOAKMLWU-CPe-1" target="ag0j8mvPNOAKMLWU-CPe-5">
          <mxGeometry relative="1" as="geometry" />
        </mxCell>
        <mxCell id="ag0j8mvPNOAKMLWU-CPe-10" style="edgeStyle=none;shape=connector;rounded=0;orthogonalLoop=1;jettySize=auto;html=1;exitX=0;exitY=1;exitDx=0;exitDy=0;entryX=1;entryY=0.5;entryDx=0;entryDy=0;strokeColor=default;align=center;verticalAlign=middle;fontFamily=Helvetica;fontSize=11;fontColor=default;labelBackgroundColor=default;endArrow=none;endFill=0;" edge="1" parent="1" source="ag0j8mvPNOAKMLWU-CPe-1" target="ag0j8mvPNOAKMLWU-CPe-6">
          <mxGeometry relative="1" as="geometry" />
        </mxCell>
        <mxCell id="ag0j8mvPNOAKMLWU-CPe-25" style="edgeStyle=orthogonalEdgeStyle;shape=link;rounded=0;orthogonalLoop=1;jettySize=auto;html=1;exitX=0.5;exitY=0;exitDx=0;exitDy=0;entryX=0;entryY=0.5;entryDx=0;entryDy=0;strokeColor=default;align=center;verticalAlign=middle;fontFamily=Helvetica;fontSize=11;fontColor=default;labelBackgroundColor=default;endArrow=none;endFill=0;" edge="1" parent="1" source="ag0j8mvPNOAKMLWU-CPe-1" target="ag0j8mvPNOAKMLWU-CPe-24">
          <mxGeometry relative="1" as="geometry" />
        </mxCell>
        <mxCell id="ag0j8mvPNOAKMLWU-CPe-36" value="1" style="edgeLabel;html=1;align=center;verticalAlign=middle;resizable=0;points=[];fontFamily=Helvetica;fontSize=11;fontColor=default;labelBackgroundColor=default;" vertex="1" connectable="0" parent="ag0j8mvPNOAKMLWU-CPe-25">
          <mxGeometry x="-0.7882" relative="1" as="geometry">
            <mxPoint x="-10" y="-2" as="offset" />
          </mxGeometry>
        </mxCell>
        <mxCell id="ag0j8mvPNOAKMLWU-CPe-32" style="edgeStyle=orthogonalEdgeStyle;shape=connector;rounded=0;orthogonalLoop=1;jettySize=auto;html=1;exitX=0.25;exitY=1;exitDx=0;exitDy=0;entryX=0.5;entryY=0;entryDx=0;entryDy=0;strokeColor=default;align=center;verticalAlign=middle;fontFamily=Helvetica;fontSize=11;fontColor=default;labelBackgroundColor=default;endArrow=none;endFill=0;" edge="1" parent="1" source="ag0j8mvPNOAKMLWU-CPe-1" target="ag0j8mvPNOAKMLWU-CPe-27">
          <mxGeometry relative="1" as="geometry" />
        </mxCell>
        <mxCell id="ag0j8mvPNOAKMLWU-CPe-34" value="N" style="edgeLabel;html=1;align=center;verticalAlign=middle;resizable=0;points=[];fontFamily=Helvetica;fontSize=11;fontColor=default;labelBackgroundColor=default;" vertex="1" connectable="0" parent="ag0j8mvPNOAKMLWU-CPe-32">
          <mxGeometry x="-0.6222" y="-1" relative="1" as="geometry">
            <mxPoint x="-9" y="3" as="offset" />
          </mxGeometry>
        </mxCell>
        <mxCell id="ag0j8mvPNOAKMLWU-CPe-1" value="CLUBE" style="whiteSpace=wrap;html=1;align=center;fillColor=#dae8fc;strokeColor=#6c8ebf;" vertex="1" parent="1">
          <mxGeometry x="60" y="200" width="100" height="40" as="geometry" />
        </mxCell>
        <mxCell id="ag0j8mvPNOAKMLWU-CPe-16" style="edgeStyle=none;shape=connector;rounded=0;orthogonalLoop=1;jettySize=auto;html=1;exitX=1;exitY=1;exitDx=0;exitDy=0;entryX=0;entryY=0.5;entryDx=0;entryDy=0;strokeColor=default;align=center;verticalAlign=middle;fontFamily=Helvetica;fontSize=11;fontColor=default;labelBackgroundColor=default;endArrow=none;endFill=0;" edge="1" parent="1" source="ag0j8mvPNOAKMLWU-CPe-2" target="ag0j8mvPNOAKMLWU-CPe-14">
          <mxGeometry relative="1" as="geometry" />
        </mxCell>
        <mxCell id="ag0j8mvPNOAKMLWU-CPe-17" style="edgeStyle=none;shape=connector;rounded=0;orthogonalLoop=1;jettySize=auto;html=1;exitX=1;exitY=0.75;exitDx=0;exitDy=0;entryX=0;entryY=0.5;entryDx=0;entryDy=0;strokeColor=default;align=center;verticalAlign=middle;fontFamily=Helvetica;fontSize=11;fontColor=default;labelBackgroundColor=default;endArrow=none;endFill=0;" edge="1" parent="1" source="ag0j8mvPNOAKMLWU-CPe-2" target="ag0j8mvPNOAKMLWU-CPe-13">
          <mxGeometry relative="1" as="geometry" />
        </mxCell>
        <mxCell id="ag0j8mvPNOAKMLWU-CPe-18" style="edgeStyle=none;shape=connector;rounded=0;orthogonalLoop=1;jettySize=auto;html=1;exitX=1;exitY=0.5;exitDx=0;exitDy=0;entryX=0;entryY=0.5;entryDx=0;entryDy=0;strokeColor=default;align=center;verticalAlign=middle;fontFamily=Helvetica;fontSize=11;fontColor=default;labelBackgroundColor=default;endArrow=none;endFill=0;" edge="1" parent="1" source="ag0j8mvPNOAKMLWU-CPe-2" target="ag0j8mvPNOAKMLWU-CPe-12">
          <mxGeometry relative="1" as="geometry" />
        </mxCell>
        <mxCell id="ag0j8mvPNOAKMLWU-CPe-19" style="edgeStyle=none;shape=connector;rounded=0;orthogonalLoop=1;jettySize=auto;html=1;exitX=1;exitY=0.25;exitDx=0;exitDy=0;entryX=0;entryY=0.5;entryDx=0;entryDy=0;strokeColor=default;align=center;verticalAlign=middle;fontFamily=Helvetica;fontSize=11;fontColor=default;labelBackgroundColor=default;endArrow=none;endFill=0;" edge="1" parent="1" source="ag0j8mvPNOAKMLWU-CPe-2" target="ag0j8mvPNOAKMLWU-CPe-11">
          <mxGeometry relative="1" as="geometry" />
        </mxCell>
        <mxCell id="ag0j8mvPNOAKMLWU-CPe-20" style="edgeStyle=none;shape=connector;rounded=0;orthogonalLoop=1;jettySize=auto;html=1;exitX=1;exitY=0;exitDx=0;exitDy=0;entryX=0;entryY=0.5;entryDx=0;entryDy=0;strokeColor=default;align=center;verticalAlign=middle;fontFamily=Helvetica;fontSize=11;fontColor=default;labelBackgroundColor=default;endArrow=none;endFill=0;" edge="1" parent="1" source="ag0j8mvPNOAKMLWU-CPe-2" target="ag0j8mvPNOAKMLWU-CPe-15">
          <mxGeometry relative="1" as="geometry" />
        </mxCell>
        <mxCell id="ag0j8mvPNOAKMLWU-CPe-26" style="edgeStyle=orthogonalEdgeStyle;shape=connector;rounded=0;orthogonalLoop=1;jettySize=auto;html=1;exitX=0.5;exitY=0;exitDx=0;exitDy=0;entryX=1;entryY=0.5;entryDx=0;entryDy=0;strokeColor=default;align=center;verticalAlign=middle;fontFamily=Helvetica;fontSize=11;fontColor=default;labelBackgroundColor=default;endArrow=none;endFill=0;" edge="1" parent="1" source="ag0j8mvPNOAKMLWU-CPe-2" target="ag0j8mvPNOAKMLWU-CPe-24">
          <mxGeometry relative="1" as="geometry" />
        </mxCell>
        <mxCell id="ag0j8mvPNOAKMLWU-CPe-37" value="N" style="edgeLabel;html=1;align=center;verticalAlign=middle;resizable=0;points=[];fontFamily=Helvetica;fontSize=11;fontColor=default;labelBackgroundColor=default;" vertex="1" connectable="0" parent="ag0j8mvPNOAKMLWU-CPe-26">
          <mxGeometry x="-0.72" relative="1" as="geometry">
            <mxPoint x="-10" y="1" as="offset" />
          </mxGeometry>
        </mxCell>
        <mxCell id="ag0j8mvPNOAKMLWU-CPe-39" style="edgeStyle=orthogonalEdgeStyle;shape=connector;rounded=0;orthogonalLoop=1;jettySize=auto;html=1;exitX=0.5;exitY=1;exitDx=0;exitDy=0;entryX=1;entryY=0.5;entryDx=0;entryDy=0;strokeColor=default;align=center;verticalAlign=middle;fontFamily=Helvetica;fontSize=11;fontColor=default;labelBackgroundColor=default;endArrow=none;endFill=0;" edge="1" parent="1" source="ag0j8mvPNOAKMLWU-CPe-2" target="ag0j8mvPNOAKMLWU-CPe-38">
          <mxGeometry relative="1" as="geometry" />
        </mxCell>
        <mxCell id="ag0j8mvPNOAKMLWU-CPe-42" value="1" style="edgeLabel;html=1;align=center;verticalAlign=middle;resizable=0;points=[];fontFamily=Helvetica;fontSize=11;fontColor=default;labelBackgroundColor=default;" vertex="1" connectable="0" parent="ag0j8mvPNOAKMLWU-CPe-39">
          <mxGeometry x="-0.3636" y="2" relative="1" as="geometry">
            <mxPoint x="-1" y="8" as="offset" />
          </mxGeometry>
        </mxCell>
        <mxCell id="ag0j8mvPNOAKMLWU-CPe-75" style="edgeStyle=orthogonalEdgeStyle;shape=connector;rounded=0;orthogonalLoop=1;jettySize=auto;html=1;exitX=0.75;exitY=1;exitDx=0;exitDy=0;entryX=1;entryY=0.5;entryDx=0;entryDy=0;strokeColor=default;align=center;verticalAlign=middle;fontFamily=Helvetica;fontSize=11;fontColor=default;labelBackgroundColor=default;endArrow=none;endFill=0;" edge="1" parent="1" source="ag0j8mvPNOAKMLWU-CPe-2" target="ag0j8mvPNOAKMLWU-CPe-74">
          <mxGeometry relative="1" as="geometry" />
        </mxCell>
        <mxCell id="ag0j8mvPNOAKMLWU-CPe-77" value="N" style="edgeLabel;html=1;align=center;verticalAlign=middle;resizable=0;points=[];fontFamily=Helvetica;fontSize=11;fontColor=default;labelBackgroundColor=default;" vertex="1" connectable="0" parent="ag0j8mvPNOAKMLWU-CPe-75">
          <mxGeometry x="-0.7551" y="2" relative="1" as="geometry">
            <mxPoint x="13" as="offset" />
          </mxGeometry>
        </mxCell>
        <mxCell id="ag0j8mvPNOAKMLWU-CPe-2" value="JOGADOR" style="whiteSpace=wrap;html=1;align=center;fillColor=#dae8fc;strokeColor=#6c8ebf;" vertex="1" parent="1">
          <mxGeometry x="380" y="200" width="100" height="40" as="geometry" />
        </mxCell>
        <mxCell id="ag0j8mvPNOAKMLWU-CPe-64" style="edgeStyle=none;shape=link;rounded=0;orthogonalLoop=1;jettySize=auto;html=1;exitX=1;exitY=0.5;exitDx=0;exitDy=0;entryX=0;entryY=0.5;entryDx=0;entryDy=0;strokeColor=default;align=center;verticalAlign=middle;fontFamily=Helvetica;fontSize=11;fontColor=default;labelBackgroundColor=default;endArrow=none;endFill=0;" edge="1" parent="1" source="ag0j8mvPNOAKMLWU-CPe-3" target="ag0j8mvPNOAKMLWU-CPe-51">
          <mxGeometry relative="1" as="geometry" />
        </mxCell>
        <mxCell id="ag0j8mvPNOAKMLWU-CPe-73" value="1" style="edgeLabel;html=1;align=center;verticalAlign=middle;resizable=0;points=[];fontFamily=Helvetica;fontSize=11;fontColor=default;labelBackgroundColor=default;" vertex="1" connectable="0" parent="ag0j8mvPNOAKMLWU-CPe-64">
          <mxGeometry x="-0.28" y="-2" relative="1" as="geometry">
            <mxPoint y="-12" as="offset" />
          </mxGeometry>
        </mxCell>
        <mxCell id="ag0j8mvPNOAKMLWU-CPe-3" value="JOGO" style="whiteSpace=wrap;html=1;align=center;fillColor=#dae8fc;strokeColor=#6c8ebf;" vertex="1" parent="1">
          <mxGeometry x="60" y="480" width="100" height="40" as="geometry" />
        </mxCell>
        <mxCell id="ag0j8mvPNOAKMLWU-CPe-5" value="CapitÃ£o" style="ellipse;whiteSpace=wrap;html=1;align=center;fillColor=#e1d5e7;strokeColor=#9673a6;labelBackgroundColor=none;" vertex="1" parent="1">
          <mxGeometry x="-90" y="140" width="100" height="40" as="geometry" />
        </mxCell>
        <mxCell id="ag0j8mvPNOAKMLWU-CPe-6" value="Hino" style="ellipse;whiteSpace=wrap;html=1;align=center;fillColor=#e1d5e7;strokeColor=#9673a6;labelBackgroundColor=none;" vertex="1" parent="1">
          <mxGeometry x="-90" y="260" width="100" height="40" as="geometry" />
        </mxCell>
        <mxCell id="ag0j8mvPNOAKMLWU-CPe-7" value="Nome" style="ellipse;whiteSpace=wrap;html=1;align=center;fontStyle=4;fillColor=#e1d5e7;strokeColor=#9673a6;labelBackgroundColor=none;" vertex="1" parent="1">
          <mxGeometry x="-90" y="200" width="100" height="40" as="geometry" />
        </mxCell>
        <mxCell id="ag0j8mvPNOAKMLWU-CPe-11" value="Nome" style="ellipse;whiteSpace=wrap;html=1;align=center;fontFamily=Helvetica;fontSize=11;labelBackgroundColor=none;fillColor=#e1d5e7;strokeColor=#9673a6;" vertex="1" parent="1">
          <mxGeometry x="540" y="140" width="100" height="40" as="geometry" />
        </mxCell>
        <mxCell id="ag0j8mvPNOAKMLWU-CPe-12" value="Numero" style="ellipse;whiteSpace=wrap;html=1;align=center;fontStyle=4;fontFamily=Helvetica;fontSize=11;labelBackgroundColor=none;fillColor=#e1d5e7;strokeColor=#9673a6;" vertex="1" parent="1">
          <mxGeometry x="540" y="200" width="100" height="40" as="geometry" />
        </mxCell>
        <mxCell id="ag0j8mvPNOAKMLWU-CPe-13" value="NumGolos" style="ellipse;whiteSpace=wrap;html=1;align=center;fontFamily=Helvetica;fontSize=11;labelBackgroundColor=none;fillColor=#e1d5e7;strokeColor=#9673a6;" vertex="1" parent="1">
          <mxGeometry x="540" y="260" width="100" height="40" as="geometry" />
        </mxCell>
        <mxCell id="ag0j8mvPNOAKMLWU-CPe-14" value="Amarelos ?" style="ellipse;whiteSpace=wrap;html=1;align=center;fontFamily=Helvetica;fontSize=11;labelBackgroundColor=none;fillColor=#e1d5e7;strokeColor=#9673a6;" vertex="1" parent="1">
          <mxGeometry x="540" y="320" width="100" height="40" as="geometry" />
        </mxCell>
        <mxCell id="ag0j8mvPNOAKMLWU-CPe-15" value="Vermelhos ?" style="ellipse;whiteSpace=wrap;html=1;align=center;fontFamily=Helvetica;fontSize=11;labelBackgroundColor=none;fillColor=#e1d5e7;strokeColor=#9673a6;" vertex="1" parent="1">
          <mxGeometry x="540" y="80" width="100" height="40" as="geometry" />
        </mxCell>
        <mxCell id="ag0j8mvPNOAKMLWU-CPe-23" style="edgeStyle=none;shape=connector;rounded=0;orthogonalLoop=1;jettySize=auto;html=1;exitX=1;exitY=0;exitDx=0;exitDy=0;entryX=0.25;entryY=1;entryDx=0;entryDy=0;strokeColor=default;align=center;verticalAlign=middle;fontFamily=Helvetica;fontSize=11;fontColor=default;labelBackgroundColor=default;endArrow=none;endFill=0;" edge="1" parent="1" source="ag0j8mvPNOAKMLWU-CPe-22" target="ag0j8mvPNOAKMLWU-CPe-3">
          <mxGeometry relative="1" as="geometry" />
        </mxCell>
        <mxCell id="ag0j8mvPNOAKMLWU-CPe-22" value="Resultado" style="ellipse;whiteSpace=wrap;html=1;align=center;fontFamily=Helvetica;fontSize=11;labelBackgroundColor=none;fillColor=#e1d5e7;strokeColor=#9673a6;" vertex="1" parent="1">
          <mxGeometry x="-40" y="560" width="100" height="40" as="geometry" />
        </mxCell>
        <mxCell id="ag0j8mvPNOAKMLWU-CPe-24" value="FAZPARTE_DE" style="shape=rhombus;perimeter=rhombusPerimeter;whiteSpace=wrap;html=1;align=center;fontFamily=Helvetica;fontSize=11;labelBackgroundColor=none;fillColor=#f8cecc;strokeColor=#b85450;" vertex="1" parent="1">
          <mxGeometry x="220" y="110" width="120" height="60" as="geometry" />
        </mxCell>
        <mxCell id="ag0j8mvPNOAKMLWU-CPe-33" style="edgeStyle=orthogonalEdgeStyle;shape=link;rounded=0;orthogonalLoop=1;jettySize=auto;html=1;exitX=0.5;exitY=1;exitDx=0;exitDy=0;entryX=0.5;entryY=0;entryDx=0;entryDy=0;strokeColor=default;align=center;verticalAlign=middle;fontFamily=Helvetica;fontSize=11;fontColor=default;labelBackgroundColor=default;endArrow=none;endFill=0;" edge="1" parent="1" source="ag0j8mvPNOAKMLWU-CPe-27" target="ag0j8mvPNOAKMLWU-CPe-3">
          <mxGeometry relative="1" as="geometry" />
        </mxCell>
        <mxCell id="ag0j8mvPNOAKMLWU-CPe-35" value="1" style="edgeLabel;html=1;align=center;verticalAlign=middle;resizable=0;points=[];fontFamily=Helvetica;fontSize=11;fontColor=default;labelBackgroundColor=default;" vertex="1" connectable="0" parent="ag0j8mvPNOAKMLWU-CPe-33">
          <mxGeometry x="0.6222" y="4" relative="1" as="geometry">
            <mxPoint x="6" as="offset" />
          </mxGeometry>
        </mxCell>
        <mxCell id="ag0j8mvPNOAKMLWU-CPe-27" value="JOGA_EM" style="shape=rhombus;perimeter=rhombusPerimeter;whiteSpace=wrap;html=1;align=center;fontFamily=Helvetica;fontSize=11;labelBackgroundColor=none;fillColor=#f8cecc;strokeColor=#b85450;" vertex="1" parent="1">
          <mxGeometry x="50" y="330" width="120" height="60" as="geometry" />
        </mxCell>
        <mxCell id="ag0j8mvPNOAKMLWU-CPe-31" style="edgeStyle=none;shape=connector;rounded=0;orthogonalLoop=1;jettySize=auto;html=1;exitX=1;exitY=0.5;exitDx=0;exitDy=0;entryX=0;entryY=0.5;entryDx=0;entryDy=0;strokeColor=default;align=center;verticalAlign=middle;fontFamily=Helvetica;fontSize=11;fontColor=default;labelBackgroundColor=default;endArrow=none;endFill=0;" edge="1" parent="1" source="ag0j8mvPNOAKMLWU-CPe-28" target="ag0j8mvPNOAKMLWU-CPe-27">
          <mxGeometry relative="1" as="geometry" />
        </mxCell>
        <mxCell id="ag0j8mvPNOAKMLWU-CPe-28" value="Casa ?" style="ellipse;whiteSpace=wrap;html=1;align=center;fontFamily=Helvetica;fontSize=11;labelBackgroundColor=none;fillColor=#e1d5e7;strokeColor=#9673a6;" vertex="1" parent="1">
          <mxGeometry x="-90" y="330" width="100" height="40" as="geometry" />
        </mxCell>
        <mxCell id="ag0j8mvPNOAKMLWU-CPe-30" style="edgeStyle=none;shape=connector;rounded=0;orthogonalLoop=1;jettySize=auto;html=1;exitX=1;exitY=0;exitDx=0;exitDy=0;entryX=0;entryY=1;entryDx=0;entryDy=0;strokeColor=default;align=center;verticalAlign=middle;fontFamily=Helvetica;fontSize=11;fontColor=default;labelBackgroundColor=default;endArrow=none;endFill=0;dashed=1;" edge="1" parent="1" source="ag0j8mvPNOAKMLWU-CPe-29" target="ag0j8mvPNOAKMLWU-CPe-27">
          <mxGeometry relative="1" as="geometry" />
        </mxCell>
        <mxCell id="ag0j8mvPNOAKMLWU-CPe-29" value="Fora" style="ellipse;whiteSpace=wrap;html=1;align=center;dashed=1;fontFamily=Helvetica;fontSize=11;labelBackgroundColor=none;fillColor=#e1d5e7;strokeColor=#9673a6;" vertex="1" parent="1">
          <mxGeometry x="-90" y="390" width="100" height="40" as="geometry" />
        </mxCell>
        <mxCell id="ag0j8mvPNOAKMLWU-CPe-40" style="edgeStyle=orthogonalEdgeStyle;shape=link;rounded=0;orthogonalLoop=1;jettySize=auto;html=1;exitX=0;exitY=0.5;exitDx=0;exitDy=0;entryX=0.75;entryY=1;entryDx=0;entryDy=0;strokeColor=default;align=center;verticalAlign=middle;fontFamily=Helvetica;fontSize=11;fontColor=default;labelBackgroundColor=default;endArrow=none;endFill=0;" edge="1" parent="1" source="ag0j8mvPNOAKMLWU-CPe-38" target="ag0j8mvPNOAKMLWU-CPe-1">
          <mxGeometry relative="1" as="geometry" />
        </mxCell>
        <mxCell id="ag0j8mvPNOAKMLWU-CPe-41" value="1" style="edgeLabel;html=1;align=center;verticalAlign=middle;resizable=0;points=[];fontFamily=Helvetica;fontSize=11;fontColor=default;labelBackgroundColor=default;" vertex="1" connectable="0" parent="ag0j8mvPNOAKMLWU-CPe-40">
          <mxGeometry x="0.1429" y="-1" relative="1" as="geometry">
            <mxPoint y="11" as="offset" />
          </mxGeometry>
        </mxCell>
        <mxCell id="ag0j8mvPNOAKMLWU-CPe-38" value="CAPITÃO_DE" style="shape=rhombus;perimeter=rhombusPerimeter;whiteSpace=wrap;html=1;align=center;fontFamily=Helvetica;fontSize=11;labelBackgroundColor=none;fillColor=#f8cecc;strokeColor=#b85450;" vertex="1" parent="1">
          <mxGeometry x="220" y="230" width="120" height="60" as="geometry" />
        </mxCell>
        <mxCell id="ag0j8mvPNOAKMLWU-CPe-43" value="TABELA" style="whiteSpace=wrap;html=1;align=center;fontFamily=Helvetica;fontSize=11;labelBackgroundColor=none;fillColor=#dae8fc;strokeColor=#6c8ebf;" vertex="1" parent="1">
          <mxGeometry x="380" y="480" width="100" height="40" as="geometry" />
        </mxCell>
        <mxCell id="ag0j8mvPNOAKMLWU-CPe-44" value="Gm" style="ellipse;whiteSpace=wrap;html=1;align=center;fontFamily=Helvetica;fontSize=11;labelBackgroundColor=none;fillColor=#e1d5e7;strokeColor=#9673a6;" vertex="1" parent="1">
          <mxGeometry x="660" y="520" width="100" height="40" as="geometry" />
        </mxCell>
        <mxCell id="ag0j8mvPNOAKMLWU-CPe-45" value="Gs" style="ellipse;whiteSpace=wrap;html=1;align=center;fontFamily=Helvetica;fontSize=11;labelBackgroundColor=none;fillColor=#e1d5e7;strokeColor=#9673a6;" vertex="1" parent="1">
          <mxGeometry x="660" y="385" width="100" height="40" as="geometry" />
        </mxCell>
        <mxCell id="ag0j8mvPNOAKMLWU-CPe-46" value="Dg" style="ellipse;whiteSpace=wrap;html=1;align=center;dashed=1;fontFamily=Helvetica;fontSize=11;labelBackgroundColor=none;fillColor=#e1d5e7;strokeColor=#9673a6;" vertex="1" parent="1">
          <mxGeometry x="660" y="450" width="100" height="40" as="geometry" />
        </mxCell>
        <mxCell id="ag0j8mvPNOAKMLWU-CPe-65" style="edgeStyle=none;shape=link;rounded=0;orthogonalLoop=1;jettySize=auto;html=1;exitX=1;exitY=0.5;exitDx=0;exitDy=0;entryX=0;entryY=0.5;entryDx=0;entryDy=0;strokeColor=default;align=center;verticalAlign=middle;fontFamily=Helvetica;fontSize=11;fontColor=default;labelBackgroundColor=default;endArrow=none;endFill=0;" edge="1" parent="1" source="ag0j8mvPNOAKMLWU-CPe-51" target="ag0j8mvPNOAKMLWU-CPe-43">
          <mxGeometry relative="1" as="geometry" />
        </mxCell>
        <mxCell id="ag0j8mvPNOAKMLWU-CPe-72" value="1" style="edgeLabel;html=1;align=center;verticalAlign=middle;resizable=0;points=[];fontFamily=Helvetica;fontSize=11;fontColor=default;labelBackgroundColor=default;" vertex="1" connectable="0" parent="ag0j8mvPNOAKMLWU-CPe-65">
          <mxGeometry x="0.24" y="1" relative="1" as="geometry">
            <mxPoint y="-9" as="offset" />
          </mxGeometry>
        </mxCell>
        <mxCell id="ag0j8mvPNOAKMLWU-CPe-51" value="MODIFICOU" style="shape=rhombus;perimeter=rhombusPerimeter;whiteSpace=wrap;html=1;align=center;fontFamily=Helvetica;fontSize=11;labelBackgroundColor=none;fillColor=#f8cecc;strokeColor=#b85450;" vertex="1" parent="1">
          <mxGeometry x="210" y="470" width="120" height="60" as="geometry" />
        </mxCell>
        <mxCell id="ag0j8mvPNOAKMLWU-CPe-57" style="shape=connector;rounded=0;orthogonalLoop=1;jettySize=auto;html=1;exitX=0;exitY=0.5;exitDx=0;exitDy=0;entryX=1;entryY=0.5;entryDx=0;entryDy=0;strokeColor=default;align=center;verticalAlign=middle;fontFamily=Helvetica;fontSize=11;fontColor=default;labelBackgroundColor=default;endArrow=none;endFill=0;" edge="1" parent="1" source="ag0j8mvPNOAKMLWU-CPe-53" target="ag0j8mvPNOAKMLWU-CPe-43">
          <mxGeometry relative="1" as="geometry" />
        </mxCell>
        <mxCell id="ag0j8mvPNOAKMLWU-CPe-59" style="edgeStyle=none;shape=connector;rounded=0;orthogonalLoop=1;jettySize=auto;html=1;exitX=0.5;exitY=0;exitDx=0;exitDy=0;entryX=0;entryY=0.5;entryDx=0;entryDy=0;strokeColor=#9673a6;align=center;verticalAlign=middle;fontFamily=Helvetica;fontSize=11;fontColor=default;labelBackgroundColor=none;endArrow=none;endFill=0;fillColor=#e1d5e7;" edge="1" parent="1" source="ag0j8mvPNOAKMLWU-CPe-53" target="ag0j8mvPNOAKMLWU-CPe-45">
          <mxGeometry relative="1" as="geometry" />
        </mxCell>
        <mxCell id="ag0j8mvPNOAKMLWU-CPe-60" style="edgeStyle=none;shape=connector;rounded=0;orthogonalLoop=1;jettySize=auto;html=1;exitX=1;exitY=0;exitDx=0;exitDy=0;entryX=0;entryY=0.5;entryDx=0;entryDy=0;strokeColor=#9673a6;align=center;verticalAlign=middle;fontFamily=Helvetica;fontSize=11;fontColor=default;labelBackgroundColor=none;endArrow=none;endFill=0;fillColor=#e1d5e7;" edge="1" parent="1" source="ag0j8mvPNOAKMLWU-CPe-53" target="ag0j8mvPNOAKMLWU-CPe-46">
          <mxGeometry relative="1" as="geometry" />
        </mxCell>
        <mxCell id="ag0j8mvPNOAKMLWU-CPe-61" style="edgeStyle=none;shape=connector;rounded=0;orthogonalLoop=1;jettySize=auto;html=1;exitX=1;exitY=0.5;exitDx=0;exitDy=0;entryX=0;entryY=0.5;entryDx=0;entryDy=0;strokeColor=#9673a6;align=center;verticalAlign=middle;fontFamily=Helvetica;fontSize=11;fontColor=default;labelBackgroundColor=none;endArrow=none;endFill=0;fillColor=#e1d5e7;" edge="1" parent="1" source="ag0j8mvPNOAKMLWU-CPe-53" target="ag0j8mvPNOAKMLWU-CPe-44">
          <mxGeometry relative="1" as="geometry" />
        </mxCell>
        <mxCell id="ag0j8mvPNOAKMLWU-CPe-62" style="edgeStyle=none;shape=connector;rounded=0;orthogonalLoop=1;jettySize=auto;html=1;exitX=1;exitY=1;exitDx=0;exitDy=0;entryX=0;entryY=0.5;entryDx=0;entryDy=0;strokeColor=#9673a6;align=center;verticalAlign=middle;fontFamily=Helvetica;fontSize=11;fontColor=default;labelBackgroundColor=none;endArrow=none;endFill=0;fillColor=#e1d5e7;" edge="1" parent="1" source="ag0j8mvPNOAKMLWU-CPe-53" target="ag0j8mvPNOAKMLWU-CPe-54">
          <mxGeometry relative="1" as="geometry" />
        </mxCell>
        <mxCell id="ag0j8mvPNOAKMLWU-CPe-63" style="edgeStyle=none;shape=connector;rounded=0;orthogonalLoop=1;jettySize=auto;html=1;exitX=0.5;exitY=1;exitDx=0;exitDy=0;entryX=0.5;entryY=0;entryDx=0;entryDy=0;strokeColor=#9673a6;align=center;verticalAlign=middle;fontFamily=Helvetica;fontSize=11;fontColor=default;labelBackgroundColor=none;endArrow=none;endFill=0;fillColor=#e1d5e7;" edge="1" parent="1" source="ag0j8mvPNOAKMLWU-CPe-53" target="ag0j8mvPNOAKMLWU-CPe-56">
          <mxGeometry relative="1" as="geometry" />
        </mxCell>
        <mxCell id="ag0j8mvPNOAKMLWU-CPe-53" value="Clube" style="ellipse;shape=doubleEllipse;margin=3;whiteSpace=wrap;html=1;align=center;fontFamily=Helvetica;fontSize=11;labelBackgroundColor=none;fillColor=#e1d5e7;strokeColor=#9673a6;" vertex="1" parent="1">
          <mxGeometry x="530" y="480" width="100" height="40" as="geometry" />
        </mxCell>
        <mxCell id="ag0j8mvPNOAKMLWU-CPe-54" value="Pontos" style="ellipse;whiteSpace=wrap;html=1;align=center;fontFamily=Helvetica;fontSize=11;labelBackgroundColor=none;fillColor=#e1d5e7;strokeColor=#9673a6;" vertex="1" parent="1">
          <mxGeometry x="660" y="590" width="100" height="40" as="geometry" />
        </mxCell>
        <mxCell id="ag0j8mvPNOAKMLWU-CPe-56" value="NomClube" style="ellipse;whiteSpace=wrap;html=1;align=center;fontStyle=4;fontFamily=Helvetica;fontSize=11;labelBackgroundColor=none;fillColor=#e1d5e7;strokeColor=#9673a6;" vertex="1" parent="1">
          <mxGeometry x="570" y="640" width="100" height="40" as="geometry" />
        </mxCell>
        <mxCell id="ag0j8mvPNOAKMLWU-CPe-67" style="edgeStyle=none;shape=connector;rounded=0;orthogonalLoop=1;jettySize=auto;html=1;exitX=0.5;exitY=0;exitDx=0;exitDy=0;entryX=0;entryY=1;entryDx=0;entryDy=0;strokeColor=default;align=center;verticalAlign=middle;fontFamily=Helvetica;fontSize=11;fontColor=default;labelBackgroundColor=default;endArrow=none;endFill=0;" edge="1" parent="1" source="ag0j8mvPNOAKMLWU-CPe-66" target="ag0j8mvPNOAKMLWU-CPe-51">
          <mxGeometry relative="1" as="geometry" />
        </mxCell>
        <mxCell id="ag0j8mvPNOAKMLWU-CPe-66" value="DataDeModif" style="ellipse;whiteSpace=wrap;html=1;align=center;fontFamily=Helvetica;fontSize=11;labelBackgroundColor=none;fillColor=#e1d5e7;strokeColor=#9673a6;" vertex="1" parent="1">
          <mxGeometry x="160" y="585" width="100" height="40" as="geometry" />
        </mxCell>
        <mxCell id="ag0j8mvPNOAKMLWU-CPe-71" style="edgeStyle=none;shape=connector;rounded=0;orthogonalLoop=1;jettySize=auto;html=1;exitX=0.5;exitY=0;exitDx=0;exitDy=0;entryX=1;entryY=1;entryDx=0;entryDy=0;strokeColor=default;align=center;verticalAlign=middle;fontFamily=Helvetica;fontSize=11;fontColor=default;labelBackgroundColor=default;endArrow=none;endFill=0;" edge="1" parent="1" source="ag0j8mvPNOAKMLWU-CPe-68" target="ag0j8mvPNOAKMLWU-CPe-51">
          <mxGeometry relative="1" as="geometry" />
        </mxCell>
        <mxCell id="ag0j8mvPNOAKMLWU-CPe-68" value="Resultado" style="ellipse;whiteSpace=wrap;html=1;align=center;fontFamily=Helvetica;fontSize=11;labelBackgroundColor=none;fillColor=#e1d5e7;strokeColor=#9673a6;" vertex="1" parent="1">
          <mxGeometry x="280" y="585" width="100" height="40" as="geometry" />
        </mxCell>
        <mxCell id="ag0j8mvPNOAKMLWU-CPe-76" style="edgeStyle=orthogonalEdgeStyle;rounded=0;orthogonalLoop=1;jettySize=auto;html=1;exitX=0;exitY=1;exitDx=0;exitDy=0;entryX=0.75;entryY=0;entryDx=0;entryDy=0;strokeColor=default;align=center;verticalAlign=middle;fontFamily=Helvetica;fontSize=11;fontColor=default;labelBackgroundColor=default;endArrow=none;endFill=0;" edge="1" parent="1" source="ag0j8mvPNOAKMLWU-CPe-74" target="ag0j8mvPNOAKMLWU-CPe-3">
          <mxGeometry relative="1" as="geometry" />
        </mxCell>
        <mxCell id="ag0j8mvPNOAKMLWU-CPe-78" value="M" style="edgeLabel;html=1;align=center;verticalAlign=middle;resizable=0;points=[];fontFamily=Helvetica;fontSize=11;fontColor=default;labelBackgroundColor=default;" vertex="1" connectable="0" parent="ag0j8mvPNOAKMLWU-CPe-76">
          <mxGeometry x="-0.6571" relative="1" as="geometry">
            <mxPoint x="-4" y="15" as="offset" />
          </mxGeometry>
        </mxCell>
        <mxCell id="ag0j8mvPNOAKMLWU-CPe-74" value="MARCOU_EM" style="shape=rhombus;perimeter=rhombusPerimeter;whiteSpace=wrap;html=1;align=center;fontFamily=Helvetica;fontSize=11;labelBackgroundColor=none;fillColor=#f8cecc;strokeColor=#b85450;" vertex="1" parent="1">
          <mxGeometry x="220" y="340" width="120" height="60" as="geometry" />
        </mxCell>
      </root>
    </mxGraphModel>
  </diagram>
</mxfile>
